<?xml version="1.0" encoding="UTF-8"?><svg id="d" xmlns="http://www.w3.org/2000/svg" viewBox="0 0 20 16"><path d="M0,13.199V2.801c0-.532,.431-.963,.963-.963H19.037c.532,0,.963,.431,.963,.963V13.199c0,.532-.431,.963-.963,.963H.963c-.532,0-.963-.431-.963-.963Zm1.604-.775h3.529c.381,0,.765-.041,1.15-.122,.385-.081,.732-.215,1.041-.402,.308-.187,.56-.432,.755-.736s.292-.683,.292-1.138c0-.276-.045-.536-.134-.779-.089-.243-.217-.456-.383-.639-.166-.183-.365-.333-.596-.45-.231-.118-.489-.197-.773-.237v-.024c.446-.138,.805-.367,1.077-.688,.272-.32,.408-.724,.408-1.211,0-.47-.093-.848-.28-1.132-.187-.284-.43-.505-.73-.663-.3-.158-.639-.264-1.016-.316-.377-.053-.753-.079-1.126-.079H1.604V12.425Zm1.899-7.01h1.29c.146,0,.296,.014,.45,.043,.154,.029,.292,.075,.414,.14,.122,.065,.221,.156,.298,.274,.077,.118,.116,.266,.116,.444,0,.17-.035,.316-.103,.438-.069,.122-.16,.219-.274,.292-.114,.073-.242,.126-.383,.158-.142,.033-.286,.049-.432,.049h-1.375v-1.838Zm0,3.444h1.436c.154,0,.32,.012,.499,.037,.178,.024,.345,.069,.499,.134,.154,.065,.282,.16,.383,.286,.101,.126,.152,.29,.152,.493,0,.187-.039,.345-.116,.475-.077,.13-.176,.235-.298,.316-.122,.081-.258,.138-.408,.17-.15,.033-.298,.049-.444,.049h-1.704v-1.959Zm5.945-3.462c.207,.207,.456,.31,.748,.31s.542-.103,.748-.31,.31-.456,.31-.748-.103-.542-.31-.748-.456-.31-.748-.31-.542,.103-.748,.31-.31,.456-.31,.748,.103,.542,.31,.748Zm-.164,7.028h1.826V6.51h-1.826v5.915Zm3.176-1.679c.17,.381,.404,.708,.7,.98,.296,.272,.645,.481,1.047,.627s.829,.219,1.284,.219,.882-.073,1.284-.219c.402-.146,.75-.355,1.047-.627,.296-.272,.529-.598,.7-.98,.17-.381,.256-.807,.256-1.278s-.085-.896-.256-1.278c-.17-.381-.404-.708-.7-.98-.296-.272-.645-.481-1.047-.627-.402-.146-.83-.219-1.284-.219s-.882,.073-1.284,.219-.751,.355-1.047,.627c-.296,.272-.529,.598-.7,.98-.17,.381-.256,.807-.256,1.278s.085,.897,.256,1.278Zm1.953-2.361c.256-.276,.615-.414,1.077-.414s.821,.138,1.077,.414c.256,.276,.383,.637,.383,1.083s-.128,.807-.383,1.083c-.256,.276-.615,.414-1.077,.414s-.821-.138-1.077-.414c-.256-.276-.383-.637-.383-1.083s.128-.807,.383-1.083Z"/></svg>