<?xml version="1.0" encoding="UTF-8"?><svg id="d" xmlns="http://www.w3.org/2000/svg" viewBox="0 0 38.946 31.157"><path d="M0,25.704V5.454c0-1.036,.839-1.875,1.875-1.875H37.071c1.036,0,1.875,.839,1.875,1.875V25.704c0,1.036-.839,1.875-1.875,1.875H1.875c-1.036,0-1.875-.839-1.875-1.875Zm3.124-1.509h6.873c.742,0,1.489-.079,2.24-.237,.75-.158,1.426-.418,2.026-.782,.6-.363,1.09-.841,1.469-1.434s.569-1.331,.569-2.216c0-.537-.087-1.043-.261-1.517-.174-.474-.423-.889-.747-1.244-.324-.355-.711-.648-1.161-.877-.45-.229-.952-.383-1.505-.462v-.047c.869-.268,1.568-.715,2.097-1.339,.529-.624,.794-1.41,.794-2.358,0-.916-.182-1.651-.545-2.204-.364-.553-.838-.984-1.422-1.292-.585-.308-1.244-.513-1.979-.616-.735-.103-1.466-.154-2.192-.154H3.124V24.195Zm3.697-13.651h2.512c.284,0,.577,.028,.877,.083,.3,.056,.569,.146,.806,.273,.237,.127,.43,.304,.581,.533,.15,.229,.225,.518,.225,.865,0,.332-.067,.616-.201,.853-.134,.237-.312,.427-.533,.569-.221,.142-.47,.245-.747,.308-.277,.063-.557,.095-.841,.095h-2.678v-3.579Zm0,6.707h2.797c.3,0,.624,.024,.972,.071,.347,.047,.671,.134,.972,.261,.3,.127,.549,.312,.747,.557,.197,.245,.296,.565,.296,.96,0,.364-.075,.672-.225,.924-.15,.253-.344,.458-.581,.616-.237,.158-.502,.269-.794,.332-.293,.063-.581,.095-.865,.095h-3.318v-3.816Zm11.577-6.742c.403,.403,.889,.604,1.458,.604s1.055-.201,1.457-.604,.604-.889,.604-1.457-.201-1.055-.604-1.457-.889-.604-1.457-.604-1.055,.201-1.458,.604-.604,.889-.604,1.457,.201,1.055,.604,1.457Zm-.32,13.686h3.555V12.677h-3.555v11.518Zm6.185-3.27c.332,.743,.786,1.379,1.363,1.908,.577,.53,1.256,.936,2.038,1.221s1.615,.427,2.5,.427,1.718-.142,2.5-.427c.782-.284,1.461-.691,2.038-1.221,.577-.529,1.031-1.165,1.363-1.908,.332-.742,.498-1.572,.498-2.488s-.166-1.746-.498-2.488c-.332-.742-.786-1.378-1.363-1.908-.577-.529-1.256-.936-2.038-1.221-.782-.284-1.616-.427-2.5-.427s-1.718,.142-2.5,.427-1.462,.691-2.038,1.221c-.577,.53-1.031,1.165-1.363,1.908-.332,.743-.498,1.572-.498,2.488s.166,1.746,.498,2.488Zm3.804-4.598c.498-.537,1.197-.806,2.097-.806s1.6,.269,2.097,.806c.498,.537,.747,1.241,.747,2.109s-.249,1.572-.747,2.109c-.498,.537-1.197,.806-2.097,.806s-1.6-.268-2.097-.806c-.498-.537-.747-1.24-.747-2.109s.249-1.572,.747-2.109Z"/></svg>